<?xml version="1.0" encoding="iso-8859-1"?>
<!-- Generator: Adobe Illustrator 19.0.0, SVG Export Plug-In . SVG Version: 6.00 Build 0)  -->
<svg version="1.1" id="Layer_1" xmlns="http://www.w3.org/2000/svg" xmlns:xlink="http://www.w3.org/1999/xlink" x="0px" y="0px"
	 viewBox="0 0 511.999 511.999" style="enable-background:new 0 0 511.999 511.999;" xml:space="preserve">
<g>
	<g>
		<path d="M297.165,100.246c-0.533,3.142-0.65,10.5-5.862,17.279c-5.891,6.086-8.452,6.945-15.63,9.931
			c-5.643,2.06-15.314,4.292-22.188,12.544c-6.265,7.12-7.079,17.111-4.656,21.509c2.239-6.557,8.048-12.341,11.444-14.126
			c8.097-4.725,12.383-4.747,19.533-7.208c9.296-3.706,16.161-8.065,20.405-17.952C303.124,115.546,301.481,105.736,297.165,100.246
			z"/>
	</g>
</g>
<g>
	<g>
		<path d="M332.389,287.431h-24.011v-5.068c9.994,0,18.124-8.13,18.124-18.123s-8.13-18.123-18.124-18.123v-2.685
			c0-2.486-2.015-4.501-4.501-4.501h-35.955c-2.486,0-4.501,2.015-4.501,4.501v43.999H170.06c-9.248,0-16.744,7.497-16.744,16.744
			c0,9.248,7.497,16.744,16.744,16.744h68.395v79.786h-13.631c-7.052,0-12.77,5.717-12.77,12.77s5.718,12.77,12.77,12.77h52.801
			c7.052,0,12.77-5.717,12.77-12.77s-5.718-12.77-12.77-12.77h-13.631v-79.786h68.396c9.248,0,16.744-7.497,16.744-16.744
			C349.133,294.927,341.636,287.431,332.389,287.431z M308.378,258.378c3.232,0.001,5.863,2.629,5.863,5.862
			s-2.629,5.862-5.863,5.862V258.378z"/>
	</g>
</g>
<g>
	<g>
		<path d="M257.102,180.823c-0.581-4.581-4.765-7.826-9.344-7.244c-15.042,1.904-25.722,3.257-43.343,5.487
			c-4.834-2.564-10.853-2.589-15.85,0.485l-43.586,26.809l-44.563-20.593l23.577,3.611c-2.711-3.045-6.272-5.397-10.481-6.603
			L77.047,172.33c-12.484-3.577-25.393,4.249-27.984,16.988L27.08,297.458c-1.277,6.282,0.649,13.049,5.758,17.765H12.77
			c-7.052,0-12.77,5.718-12.77,12.77v85.481c0,7.053,5.718,12.77,12.77,12.77s12.77-5.717,12.77-12.77v-72.71h58.684v72.71
			c0,7.053,5.718,12.77,12.77,12.77s12.77-5.717,12.77-12.77V338.32l26.797,75.194c3.553,9.971,14.517,15.163,24.474,11.613
			c9.966-3.551,15.166-14.509,11.614-24.475l-34.529-96.891c-2.004-5.622-6.514-9.989-12.196-11.812l-18.78-6.02l12.339-43.068
			L87.022,214.75l52.332,24.182c4.764,2.2,10.423,1.958,15.06-0.894l50.877-31.292c4.373-2.69,6.979-7.149,7.493-11.886
			c15.193-1.924,23.149-2.93,37.076-4.694C254.439,189.586,257.683,185.403,257.102,180.823z"/>
	</g>
</g>
<g>
	<g>
		<circle cx="113.057" cy="130.931" r="32.997"/>
	</g>
</g>
<g>
	<g>
		<circle cx="432.597" cy="118.748" r="32.997"/>
	</g>
</g>
<g>
	<g>
		<path d="M498.932,315.225H474.77c5.91-3.641,9.065-9.885,9.06-16.208l-0.093-110.354c-0.011-12.987-11.097-23.232-24.057-22.202
			l-37.811,3.005c-12.272,0.975-21.431,11.715-20.456,23.987l1.831,22.394l31.052-27.204l-26.583,41.271l-51.167,0.731
			c-8.814,0.126-15.859,7.374-15.733,16.189c0.125,8.738,7.247,15.735,15.957,15.735c0.077,0,0.156,0,0.233-0.001l59.724-0.854
			c5.345-0.076,10.297-2.823,13.192-7.316l31.217-48.465l-17.235,57.47c-2.673,8.911-10.782,14.705-19.615,14.841
			c-9.02,0.121-5.367,0.071-16.116,0.225l0.621,7.811l-21.711,5.302c-6.262,1.529-11.336,6.106-13.499,12.178l-34.53,96.894
			c-3.552,9.966,1.648,20.923,11.614,24.475c9.965,3.551,20.923-1.65,24.474-11.613l26.797-75.196v75.156
			c0,7.053,5.718,12.77,12.77,12.77c7.052,0,12.77-5.717,12.77-12.77v-72.71h58.982v72.71c0,7.053,5.718,12.77,12.77,12.77
			c7.052,0,12.77-5.717,12.77-12.77v-85.422C512,320.987,506.269,315.225,498.932,315.225z"/>
	</g>
</g>
<g>
</g>
<g>
</g>
<g>
</g>
<g>
</g>
<g>
</g>
<g>
</g>
<g>
</g>
<g>
</g>
<g>
</g>
<g>
</g>
<g>
</g>
<g>
</g>
<g>
</g>
<g>
</g>
<g>
</g>
</svg>
